# xmcd CD database file
#
# Track frame offsets:
#	150
#	10280
#	26256
#	42106
#	57126
#	70390
#	82628
#	97993
#	107864
#	124208
#	137480
#	151281
#	163458
#	177945
#	188835
#	201882
#	214402
#	226072
#	239562
#	250622
#	261196
#	274025
#	287493
#	302338
#	316572
#	325303
#	337080
#
# Disc length: 4664 seconds
#
# Revision: 0
# Processed by: cddbd v1.5.1PL2 Copyright (c) Steve Scherf et al.
# Submitted via: CDex 1.51
#
DISCID=7212361b
DTITLE=The Statler Brothers - Coletânea do Nivas
DYEAR=2006
DGENRE=Country
TTITLE0=01 - Do You Know You Are My Sunshine
TTITLE1=02 - Elizabeth
TTITLE2=03 - How To Be A Country Star
TTITLE3=04 - It Only Hurts For A Little While
TTITLE4=05 - We Owe It All To Yesterday
TTITLE5=06 - You'll Be Back (Every Night In My Dreams)
TTITLE6=07 - Streets Of Baltimore
TTITLE7=08 - Who Am I To Say
TTITLE8=09 - If It Makes Any Difference
TTITLE9=10 - Amanda
TTITLE10=11 - She Thinks I Still Care
TTITLE11=12 - Oh Happy day
TTITLE12=13 - In The Garden
TTITLE13=14 - Bed of Roses
TTITLE14=15 - Do You Remember These!
TTITLE15=16 - New York City
TTITLE16=17 - He's got the whole world in his hands
TTITLE17=18 - Lord's Prayer
TTITLE18=19 - Flowers On The Wall
TTITLE19=20 - Hello Mary Lou
TTITLE20=21 - I'll Go to My Grave Loving You
TTITLE21=22 - Charlotte's Web
TTITLE22=23 - Carry Me Back
TTITLE23=24 - The Old Rugged Cross
TTITLE24=25 - Whatever Happened To Randolph Scott
TTITLE25=26 - Just A Little Walk With Jesus
TTITLE26=27 - You'll Never walk Alone
EXTD=YEAR: 2006
EXTT0=
EXTT1=
EXTT2=
EXTT3=
EXTT4=
EXTT5=
EXTT6=
EXTT7=
EXTT8=
EXTT9=
EXTT10=
EXTT11=
EXTT12=
EXTT13=
EXTT14=
EXTT15=
EXTT16=
EXTT17=
EXTT18=
EXTT19=
EXTT20=
EXTT21=
EXTT22=
EXTT23=
EXTT24=
EXTT25=
EXTT26=
PLAYORDER=
